<svg width="10" height="6" viewBox="0 0 10 6" fill="none" xmlns="http://www.w3.org/2000/svg">
<path d="M4.99997 5.99994C4.86836 6.0007 4.7379 5.97548 4.61607 5.92571C4.49423 5.87595 4.38341 5.80262 4.28997 5.70994L0.289972 1.70994C0.101668 1.52164 -0.00411987 1.26624 -0.00411987 0.999941C-0.00411987 0.733639 0.101668 0.478245 0.289972 0.289941C0.478275 0.101637 0.73367 -0.00415039 0.999972 -0.00415039C1.26627 -0.00415039 1.52167 0.101637 1.70997 0.289941L4.99997 3.58994L8.28997 0.299941C8.48127 0.136115 8.72735 0.0505081 8.97902 0.0602293C9.2307 0.0699505 9.46944 0.174283 9.64753 0.352378C9.82563 0.530472 9.92996 0.769211 9.93968 1.02089C9.9494 1.27256 9.8638 1.51864 9.69997 1.70994L5.69997 5.70994C5.51371 5.89468 5.26231 5.99884 4.99997 5.99994Z" fill="#264065"/>
</svg>
